<?xml version="1.0" encoding="UTF-8" standalone="no" ?>
<!DOCTYPE svg PUBLIC "-//W3C//DTD SVG 1.1//EN" "http://www.w3.org/Graphics/SVG/1.1/DTD/svg11.dtd">
<svg xmlns="http://www.w3.org/2000/svg" xmlns:xlink="http://www.w3.org/1999/xlink" version="1.1" width="1080" height="1080" viewBox="0 0 1080 1080" xml:space="preserve">
<desc>Created with Fabric.js 5.2.4</desc>
<defs>
</defs>
<g transform="matrix(1 0 0 1 540 540)" id="c6b669fc-169d-436e-8d3f-306b602c60d5"  >
<rect style="stroke: none; stroke-width: 1; stroke-dasharray: none; stroke-linecap: butt; stroke-dashoffset: 0; stroke-linejoin: miter; stroke-miterlimit: 4; fill: rgb(255,255,255); fill-rule: nonzero; opacity: 1; visibility: hidden;" vector-effect="non-scaling-stroke"  x="-540" y="-540" rx="0" ry="0" width="1080" height="1080" />
</g>
<g transform="matrix(1 0 0 1 540 540)" id="d19a8fa7-fa95-4053-987e-7b709853b3a5"  >
</g>
<g transform="matrix(1 0 0 1 540 563.31)" style="" id="20c42808-bf4d-45c3-bf1f-1a2a9dac9b71"  >
		<text xml:space="preserve" font-family="Raleway" font-size="109" font-style="normal" font-weight="900" style="stroke: none; stroke-width: 1; stroke-dasharray: none; stroke-linecap: butt; stroke-dashoffset: 0; stroke-linejoin: miter; stroke-miterlimit: 4; fill: rgb(255,255,255); fill-rule: nonzero; opacity: 1; white-space: pre;" ><tspan x="-529.63" y="34.24" >B</tspan><tspan x="-456.6" y="34.24" >u</tspan><tspan x="-388.69" y="34.24" >d</tspan><tspan x="-317.84" y="34.24" >d</tspan><tspan x="-247.54" y="34.24" >y</tspan><tspan x="-188.68" y="34.24" style="white-space: pre; "> </tspan><tspan x="-165.79" y="34.24" >o</tspan><tspan x="-100.5" y="34.24" >n</tspan><tspan x="-34.44" y="34.24" style="white-space: pre; "> </tspan><tspan x="-11.55" y="34.24" >m</tspan><tspan x="89.27" y="34.24" >o</tspan><tspan x="152.6" y="34.24" >v</tspan><tspan x="210.37" y="34.24" >e</tspan><tspan x="275.12" y="34.24" >.</tspan><tspan x="301.17" y="34.24" >c</tspan><tspan x="361.88" y="34.24" >o</tspan><tspan x="427.17" y="34.24" >m</tspan></text>
</g>
</svg>